<svg xmlns="http://www.w3.org/2000/svg" xmlns:xlink="http://www.w3.org/1999/xlink" viewBox="0 0 56.68 56.68"><defs><style>.cls-1{mask:url(#mask);filter:url(#luminosity-noclip-3);}.cls-2,.cls-4{mix-blend-mode:multiply;}.cls-2{fill:url(#linear-gradient);}.cls-3{mask:url(#mask-2);filter:url(#luminosity-noclip-4);}.cls-4{fill:url(#radial-gradient);}.cls-5{isolation:isolate;}.cls-6{fill:url(#linear-gradient-2);}.cls-7{fill:url(#linear-gradient-3);}.cls-8{mask:url(#mask-3);}.cls-9{fill:url(#linear-gradient-4);}.cls-10{mask:url(#mask-4);}.cls-11,.cls-12{mix-blend-mode:overlay;}.cls-11{fill:url(#radial-gradient-2);}.cls-13{fill:#fff;}.cls-14{filter:url(#luminosity-noclip-2);}.cls-15{filter:url(#luminosity-noclip);}</style><filter id="luminosity-noclip" x="1.66" y="-8163.3" width="53.29" height="32766" filterUnits="userSpaceOnUse" color-interpolation-filters="sRGB"><feFlood flood-color="#fff" result="bg"/><feBlend in="SourceGraphic" in2="bg"/></filter><mask id="mask" x="1.66" y="-8163.3" width="53.29" height="32766" maskUnits="userSpaceOnUse"><g class="cls-15"/></mask><linearGradient id="linear-gradient" x1="23.07" y1="32.2" x2="47" y2="2.09" gradientUnits="userSpaceOnUse"><stop offset="0" stop-color="#1a1a1a"/><stop offset="1" stop-color="#e6e6e6"/></linearGradient><filter id="luminosity-noclip-2" x="53.64" y="-8163.3" width="2.64" height="32766" filterUnits="userSpaceOnUse" color-interpolation-filters="sRGB"><feFlood flood-color="#fff" result="bg"/><feBlend in="SourceGraphic" in2="bg"/></filter><mask id="mask-2" x="53.64" y="-8163.3" width="2.64" height="32766" maskUnits="userSpaceOnUse"><g class="cls-14"/></mask><radialGradient id="radial-gradient" cx="109.75" cy="539.02" r="11.27" gradientTransform="translate(118.02 -132.79) rotate(90) scale(1.42 0.12)" gradientUnits="userSpaceOnUse"><stop offset="0" stop-color="#b3b3b3"/><stop offset="1"/></radialGradient><linearGradient id="linear-gradient-2" x1="7.76" y1="54.24" x2="48.63" y2="2.8" gradientUnits="userSpaceOnUse"><stop offset="0" stop-color="#ff00c4"/><stop offset="1" stop-color="#5e00b0"/></linearGradient><linearGradient id="linear-gradient-3" x1="7.27" y1="54.86" x2="49.12" y2="2.18" gradientUnits="userSpaceOnUse"><stop offset="0" stop-color="#5e00b0"/><stop offset="0.3" stop-color="#5e00b0"/><stop offset="0.5" stop-color="#5e00b0"/><stop offset="0.77" stop-color="#5e00b0"/><stop offset="1" stop-color="#5e00b0"/></linearGradient><filter id="luminosity-noclip-3" x="1.66" y="1.37" width="53.29" height="41.49" filterUnits="userSpaceOnUse" color-interpolation-filters="sRGB"><feFlood flood-color="#fff" result="bg"/><feBlend in="SourceGraphic" in2="bg"/></filter><mask id="mask-3" x="1.66" y="1.37" width="53.29" height="41.49" maskUnits="userSpaceOnUse"><g class="cls-1"><path class="cls-2" d="M55,41.67c0,6-42.21-11.85-51.45-26.72-.78-1.27-2.09-2.19-1.81-3.64A12.43,12.43,0,0,1,14,1.37H42.48A12.38,12.38,0,0,1,55,13.64Z"/></g></mask><linearGradient id="linear-gradient-4" x1="23.07" y1="32.2" x2="47" y2="2.09" gradientUnits="userSpaceOnUse"><stop offset="0" stop-color="#fff"/><stop offset="1" stop-color="#d4ffff"/></linearGradient><filter id="luminosity-noclip-4" x="53.64" y="7.52" width="2.64" height="32.12" filterUnits="userSpaceOnUse" color-interpolation-filters="sRGB"><feFlood flood-color="#fff" result="bg"/><feBlend in="SourceGraphic" in2="bg"/></filter><mask id="mask-4" x="53.64" y="7.52" width="2.64" height="32.12" maskUnits="userSpaceOnUse"><g class="cls-3"><path class="cls-4" d="M55,39.65c-.73,0-1.32-7.19-1.32-16.06S54.23,7.52,55,7.52s1.32,7.2,1.32,16.07S55.69,39.65,55,39.65Z"/></g></mask><radialGradient id="radial-gradient-2" cx="109.75" cy="539.02" r="11.27" gradientTransform="translate(118.02 -132.79) rotate(90) scale(1.42 0.12)" gradientUnits="userSpaceOnUse"><stop offset="0" stop-color="#d4ffff"/><stop offset="1" stop-color="#fff"/></radialGradient></defs><g class="cls-5"><g id="Layer_1" data-name="Layer 1"><rect class="cls-6" x="0.81" y="0.81" width="55.05" height="55.05" rx="12.84"/><path class="cls-7" d="M43,0H13.66A13.68,13.68,0,0,0,0,13.66V43A13.68,13.68,0,0,0,13.66,56.68H43A13.68,13.68,0,0,0,56.68,43V13.66A13.68,13.68,0,0,0,43,0ZM55.86,43A12.84,12.84,0,0,1,43,55.86H13.66A12.84,12.84,0,0,1,.81,43V13.66A12.85,12.85,0,0,1,13.66.81H43A12.84,12.84,0,0,1,55.86,13.66Z"/><g class="cls-8"><path class="cls-9" d="M55,41.67c0,6-42.21-11.85-51.45-26.72-.78-1.27-2.09-2.19-1.81-3.64A12.43,12.43,0,0,1,14,1.37H42.48A12.38,12.38,0,0,1,55,13.64Z"/></g><g class="cls-10"><path class="cls-11" d="M55,39.65c-.73,0-1.32-7.19-1.32-16.06S54.23,7.52,55,7.52s1.32,7.2,1.32,16.07S55.69,39.65,55,39.65Z"/></g><g class="cls-12"><path class="cls-13" d="M21.84,20.59h0c.48,1.67,1.52,2.77,2.74,2.77h0c1.22,0,2.26-1.1,2.74-2.77h0c.24,0,.42-.39.51-.93s.09-1-.15-1h-.1c0-.05,0-.1,0-.15a3,3,0,0,0-3-3h0a3,3,0,0,0-3,3c0,.05,0,.1,0,.15h-.1c-.24.05-.25.49-.16,1S21.6,20.63,21.84,20.59Z"/><path class="cls-13" d="M22,23.79c-4,0-4.07,3.76-4.07,7.59,0,0,1.64.87,6.7.87s6.69-.87,6.69-.87c0-3.83-.09-7.59-4.06-7.59l-2.63,1.68"/><path class="cls-13" d="M14.14,14.39a14.81,14.81,0,1,0,20.94,0A14.81,14.81,0,0,0,14.14,14.39ZM33,33.29a11.92,11.92,0,1,1,0-16.86A12,12,0,0,1,33,33.29Z"/><rect class="cls-13" x="35" y="34.41" width="2.43" height="4.11" transform="translate(-15.18 36.18) rotate(-44.88)"/><path class="cls-13" d="M46.5,47.58a1.6,1.6,0,0,1-2.27,0l-7.75-7.75a1.6,1.6,0,0,1,0-2.27l.82-.83a1.61,1.61,0,0,1,2.28,0l7.75,7.75a1.6,1.6,0,0,1,0,2.27Z"/></g></g></g></svg>