<?xml version="1.0" encoding="utf-8"?>
<!-- Generator: Adobe Illustrator 25.4.1, SVG Export Plug-In . SVG Version: 6.00 Build 0)  -->
<svg version="1.1" xmlns="http://www.w3.org/2000/svg" xmlns:xlink="http://www.w3.org/1999/xlink" x="0px" y="0px"
	 viewBox="0 0 161 125" style="enable-background:new 0 0 161 125;" xml:space="preserve">
<style type="text/css">
	.st0{fill:url(#SVGID_1_);}
	.st1{fill:url(#SVGID_00000093160392072481134050000014824025775855775369_);}
	.st2{clip-path:url(#SVGID_00000177470547921915459750000007728514419689545604_);}
	.st3{fill:url(#SVGID_00000069386532383407504530000005204499609165363341_);}
	.st4{filter:url(#Adobe_OpacityMaskFilter);}
	.st5{opacity:0.3;mask:url(#SVGID_00000013173179259752500990000016854912903065263515_);fill:#FFFFFF;}
	.st6{fill:url(#SVGID_00000082345091294033530750000015369226127091204497_);}
	.st7{fill:url(#SVGID_00000143601357012676070120000007332870145761436833_);}
	.st8{filter:url(#Adobe_OpacityMaskFilter_00000102524996454864204880000014205858662130185656_);}
	.st9{opacity:0.3;mask:url(#SVGID_00000086659999080631401270000005841704738500690099_);fill:#FFFFFF;}
	.st10{fill:url(#SVGID_00000078735503529514259060000003778767230358711727_);}
</style>
<g id="BACKGROUND">
</g>
<g id="OBJECTS">
	<g>
		<g>
			
				<image style="overflow:visible;opacity:0.35;" width="350" height="451" xlink:href="E5BB4634BA6E0131.png"  transform="matrix(0.24 0 0 0.24 80.32 19.12)">
			</image>
			<g>
				<g>
					<linearGradient id="SVGID_1_" gradientUnits="userSpaceOnUse" x1="121.2693" y1="37.2077" x2="121.2693" y2="114.6354">
						<stop  offset="0" style="stop-color:#9562FF"/>
						<stop  offset="0.7172" style="stop-color:#5A04D8"/>
					</linearGradient>
					<path class="st0" d="M150.8,102C146,84,129.5,70.8,110,70.8c-6.7,0-13,1.5-18.6,4.3c8,6.4,14,15.2,16.7,25.3
						c1.7,6.4-3.1,12.6-9.7,12.6h43.9C148.1,113,152.3,107.6,150.8,102z"/>
					
						<linearGradient id="SVGID_00000139994741415370333070000000202168947293357964_" gradientUnits="userSpaceOnUse" x1="109.9867" y1="37.2077" x2="109.9867" y2="114.6353">
						<stop  offset="0" style="stop-color:#9562FF"/>
						<stop  offset="0.7172" style="stop-color:#5A04D8"/>
					</linearGradient>
					<circle style="fill:url(#SVGID_00000139994741415370333070000000202168947293357964_);" cx="110" cy="47.3" r="18"/>
				</g>
			</g>
		</g>
		<g>
			<defs>
				<path id="SVGID_5_" d="M61.4,64.6c-22.4,0-41.2,15.2-46.8,35.8c-1.7,6.4,3.1,12.6,9.7,12.6h74.2c6.6,0,11.4-6.3,9.7-12.6
					C102.6,79.8,83.7,64.6,61.4,64.6z"/>
			</defs>
			<clipPath id="SVGID_00000143610384489259815450000004798720300371176089_">
				<use xlink:href="#SVGID_5_"  style="overflow:visible;"/>
			</clipPath>
			<g style="clip-path:url(#SVGID_00000143610384489259815450000004798720300371176089_);">
				
					<image style="overflow:visible;" width="643" height="477" xlink:href="E5BB4634BA6E0133.png"  transform="matrix(0.24 0 0 0.24 32.8 34.72)">
				</image>
			</g>
		</g>
		<g>
			<g>
				
					<image style="overflow:visible;opacity:0.35;" width="503" height="312" xlink:href="E5BB4634BA6E0136.png"  transform="matrix(0.24 0 0 0.24 2.08 53.44)">
				</image>
				<g>
					<g>
						
							<linearGradient id="SVGID_00000038411932938766520710000013714640631936805018_" gradientUnits="userSpaceOnUse" x1="76.1999" y1="127.4345" x2="42.0185" y2="68.2306">
							<stop  offset="0" style="stop-color:#FFFFFF;stop-opacity:0"/>
							<stop  offset="1" style="stop-color:#FFFFFF;stop-opacity:0.5"/>
						</linearGradient>
						<path style="fill:url(#SVGID_00000038411932938766520710000013714640631936805018_);" d="M61.4,64.6
							c-22.4,0-41.2,15.2-46.8,35.8c-1.7,6.4,3.1,12.6,9.7,12.6h74.2c6.6,0,11.4-6.3,9.7-12.6C102.6,79.8,83.7,64.6,61.4,64.6z"/>
						<defs>
							<filter id="Adobe_OpacityMaskFilter" filterUnits="userSpaceOnUse" x="14.2" y="64.6" width="94.3" height="48.5">
								
									<feColorMatrix  type="matrix" values="-1 0 0 0 1  0 -1 0 0 1  0 0 -1 0 1  0 0 0 1 0" color-interpolation-filters="sRGB" result="source"/>
							</filter>
						</defs>
						
							<mask maskUnits="userSpaceOnUse" x="14.2" y="64.6" width="94.3" height="48.5" id="SVGID_00000159431595519995226370000008603052362973847939_">
							<g class="st4">
								
									<image style="overflow:visible;" width="411" height="219" xlink:href="E5BB4634BA6E0137.jpg"  transform="matrix(0.24 0 0 0.24 12.16 62.56)">
								</image>
							</g>
						</mask>
						<path style="opacity:0.3;mask:url(#SVGID_00000159431595519995226370000008603052362973847939_);fill:#FFFFFF;" d="M61.4,64.6
							c-22.4,0-41.2,15.2-46.8,35.8c-1.7,6.4,3.1,12.6,9.7,12.6h74.2c6.6,0,11.4-6.3,9.7-12.6C102.6,79.8,83.7,64.6,61.4,64.6z"/>
					</g>
					
						<linearGradient id="SVGID_00000127749120398802211700000006834366419616937876_" gradientUnits="userSpaceOnUse" x1="61.3502" y1="113.9736" x2="61.3502" y2="63.6354">
						<stop  offset="0" style="stop-color:#FFFFFF;stop-opacity:0"/>
						<stop  offset="1" style="stop-color:#FFFFFF;stop-opacity:0.8"/>
					</linearGradient>
					<path style="fill:url(#SVGID_00000127749120398802211700000006834366419616937876_);" d="M61.4,64.6
						c22.4,0,41.2,15.2,46.8,35.8c1.7,6.4-3.1,12.6-9.7,12.6H24.3c-6.6,0-11.4-6.3-9.7-12.6C20.1,79.8,39,64.6,61.4,64.6 M61.4,63.6
						c-22.3,0-41.9,15-47.7,36.5c-0.9,3.3-0.2,6.8,1.9,9.5c2.1,2.7,5.3,4.3,8.7,4.3h74.2c3.4,0,6.6-1.6,8.7-4.3
						c2.1-2.7,2.8-6.2,1.9-9.5C103.3,78.7,83.6,63.6,61.4,63.6L61.4,63.6z"/>
				</g>
			</g>
			<g>
				
					<image style="overflow:visible;opacity:0.35;" width="281" height="281" xlink:href="E5BB4634BA6E0132.png"  transform="matrix(0.24 0 0 0.24 28.72 5.92)">
				</image>
				<g>
					<g>
						
							<linearGradient id="SVGID_00000047759718043272563500000010315621198038822564_" gradientUnits="userSpaceOnUse" x1="71.6911" y1="55.5417" x2="51.0093" y2="19.7198">
							<stop  offset="0" style="stop-color:#FFFFFF;stop-opacity:0"/>
							<stop  offset="1" style="stop-color:#FFFFFF;stop-opacity:0.5"/>
						</linearGradient>
						<circle style="fill:url(#SVGID_00000047759718043272563500000010315621198038822564_);" cx="61.4" cy="37.6" r="20.7"/>
						<defs>
							
								<filter id="Adobe_OpacityMaskFilter_00000093887278219479754610000016660222535736772264_" filterUnits="userSpaceOnUse" x="40.7" y="17" width="41.4" height="41.4">
								
									<feColorMatrix  type="matrix" values="-1 0 0 0 1  0 -1 0 0 1  0 0 -1 0 1  0 0 0 1 0" color-interpolation-filters="sRGB" result="source"/>
							</filter>
						</defs>
						
							<mask maskUnits="userSpaceOnUse" x="40.7" y="17" width="41.4" height="41.4" id="SVGID_00000062875161239348185740000008745919505620282020_">
							<g style="filter:url(#Adobe_OpacityMaskFilter_00000093887278219479754610000016660222535736772264_);">
								
									<image style="overflow:visible;" width="190" height="190" xlink:href="E5BB4634BA6E0133.jpg"  transform="matrix(0.24 0 0 0.24 38.56 14.8)">
								</image>
							</g>
						</mask>
						
							<ellipse transform="matrix(0.1612 -0.9869 0.9869 0.1612 14.3208 92.1116)" style="opacity:0.3;mask:url(#SVGID_00000062875161239348185740000008745919505620282020_);fill:#FFFFFF;" cx="61.4" cy="37.6" rx="20.7" ry="20.7"/>
					</g>
					
						<linearGradient id="SVGID_00000152962143880193007790000015712345492157571217_" gradientUnits="userSpaceOnUse" x1="61.3502" y1="59.2491" x2="61.3502" y2="16.0125">
						<stop  offset="0" style="stop-color:#FFFFFF;stop-opacity:0"/>
						<stop  offset="1" style="stop-color:#FFFFFF;stop-opacity:0.8"/>
					</linearGradient>
					<path style="fill:url(#SVGID_00000152962143880193007790000015712345492157571217_);" d="M61.4,17C72.8,17,82,26.2,82,37.6
						c0,11.4-9.3,20.7-20.7,20.7s-20.7-9.3-20.7-20.7C40.7,26.2,49.9,17,61.4,17 M61.4,16c-11.9,0-21.6,9.7-21.6,21.6
						c0,11.9,9.7,21.6,21.6,21.6S83,49.6,83,37.6C83,25.7,73.3,16,61.4,16L61.4,16z"/>
				</g>
			</g>
		</g>
	</g>
</g>
</svg>
